# AST/ASF file generated using VICON BodyLanguage
# -----------------------------------------------
:version 1.10
:name VICON
:units
  mass 1.0
  length 0.45
  angle deg
:documentation
   .ast/.asf automatically generated from VICON data using
   VICON BodyBuilder and BodyLanguage model FoxedUp or BRILLIANT.MOD
:root
   order TX TY TZ RX RY RZ
   axis XYZ
   position 0 0 0  
   orientation 0 0 0 
:bonedata
  begin
     id 1 
     name lhipjoint
     direction 0.677091 -0.635792 0.370561 
     length 2.74323 
     axis 0 0 0  XYZ
  end
  begin
     id 2 
     name lfemur
     direction 0.34202 -0.939693 0  
     length 7.44995  
     axis 0 0 20  XYZ
    dof rx ry rz
    limits (-160.0 20.0)
           (-70.0 70.0)
           (-60.0 70.0)
  end
  begin
     id 3 
     name ltibia
     direction 0.34202 -0.939693 0   
     length 7.34467   
     axis 0 0 20   XYZ
    dof rx
    limits (-10.0 170.0)
  end
  begin
     id 4 
     name lfoot
     direction 0.101953 -0.280114 0.954537   
     length 1.72105   
     axis -90 7.62852e-016 20   XYZ
    dof rx rz
    limits (-45.0 90.0)
           (-70.0 20.0)
  end
  begin
     id 5 
     name ltoes
     direction 1.53537e-011 -4.21915e-011 1   
     length 0.865872   
     axis -90 7.62852e-016 20   XYZ
    dof rx
    limits (-90.0 20.0)
  end
  begin
     id 6 
     name rhipjoint
     direction -0.695735 -0.620586 0.361699   
     length 2.81045  
     axis 0 0 0  XYZ 
  end
  begin
     id 7 
     name rfemur
     direction -0.34202 -0.939693 0   
     length 7.29387   
     axis 0 0 -20   XYZ
    dof rx ry rz
    limits (-160.0 20.0)
           (-70.0 70.0)
           (-70.0 60.0)
  end
  begin
     id 8 
     name rtibia
     direction -0.34202 -0.939693 0   
     length 7.44935   
     axis 0 0 -20   XYZ
    dof rx
    limits (-10.0 170.0)
 end
 begin
     id 9 
     name rfoot
     direction -0.104163 -0.286184 0.952496   
     length 1.77731  
     axis -90 -7.62852e-016 -20   XYZ
    dof rx rz
    limits (-45.0 90.0)
           (-20.0 70.0)
  end
  begin
     id 10 
     name rtoes
     direction -1.5355e-011 -4.21888e-011 1   
     length 0.892424   
     axis -90 -7.62852e-016 -20   XYZ
    dof rx
    limits (-90.0 20.0)
  end
  begin
     id 11 
     name lowerback
     direction 0.0100202 0.997226 -0.0737589   
     length 2.16892   
     axis 0 0 0   XYZ
    dof rx ry rz
    limits (-20.0 45.0)
           (-30.0 30.0)
           (-30.0 30.0)
  end
  begin
     id 12 
     name upperback
     direction 0.00432398 0.999988 -0.00215019   
     length 2.17326   
     axis 0 0 0   XYZ
    dof rx ry rz
    limits (-20.0 45.0)
           (-30.0 30.0)
           (-30.0 30.0)
  end
  begin
     id 13 
     name thorax
     direction -0.00195047 0.999485 0.0320434   
     length 2.18139   
     axis 0 0 0   XYZ
    dof rx ry rz
    limits (-20.0 45.0)
           (-30.0 30.0)
           (-30.0 30.0)
  end
  begin
     id 14 
     name lowerneck
     direction 0.00782762 0.986241 0.165128   
     length 1.88415   
     axis 0 0 0   XYZ
    dof rx ry rz
    limits (-20.0 45.0)
           (-30.0 30.0)
           (-30.0 30.0)
  end
  begin
     id 15 
     name upperneck
     direction 0.00988667 0.981098 -0.193258   
     length 1.9242   
     axis 0 0 0   XYZ
    dof rx ry rz
    limits (-20.0 45.0)
           (-30.0 30.0)
           (-30.0 30.0)
  end
  begin
     id 16
     name head
     direction 0.00252199 0.996513 -0.0833958  
     length 1.93887  
     axis 0 0 0   XYZ
    dof rx ry rz
    limits (-20.0 45.0)
           (-30.0 30.0)
           (-30.0 30.0)
  end
  begin
     id 17 
     name lclavicle
     direction 0.929492 0.368193 -0.0218667  
     length 3.5955  
     axis 0 0 0   XYZ
    dof ry rz
    limits (-20.0 10.0)
           (0.0 20.0)
  end
  begin
     id 18 
     name lhumerus
     direction 1 -4.48972e-011 1.41911e-027   
     length 5.2795   
     axis 180 -30 -90   XYZ
    dof rx ry rz
    limits (-60.0 90.0)
           (-90.0 90.0)
           (-90.0 90.0)
  end
  begin
     id 19
     name lradius
     direction 1 -4.48963e-011 7.05772e-027   
     length 3.53504   
     axis 180 -30 -90   XYZ
    dof rx
    limits (-10.0 170.0)
  end
  begin
     id 20
     name lwrist
     direction 1 -4.48957e-011 9.54866e-027   
     length 1.76752   
     axis -7.69462e-015 90 90   XYZ
    dof ry
    limits (-180.0 0.0)
 end
  begin
     id 21 
     name lhand
     direction 1 -4.48979e-011 1.90973e-026   
     length 0.667948   
     axis -1.21857e-014 90 90   XYZ
    dof rx rz
    limits (-90.0 90.0)
           (-45.0 45.0)
  end
  begin
     id 22 
     name lfingers
     direction 1 -4.48987e-011 3.81946e-026   
     length 0.538517   
     axis -2.43714e-014 90 90   XYZ
    dof rx
    limits (0.0 90.0)
  end
  begin
     id 23
     name lthumb
     direction 0.707107 -6.34962e-011 0.707107   
     length 0.773206   
     axis -90 45 2.85299e-015   XYZ
    dof rx rz
    limits (-45.0 45.0)
           (-45.0 45.0)
  end
  begin
     id 24 
     name rclavicle
     direction -0.898763 0.414256 -0.143584   
     length 3.5176  
     axis 0 0 0   XYZ 
    dof ry rz
    limits (-10.0 20.0)
           (-20.0 0.0)
  end
  begin
     id 25 
     name rhumerus
     direction -1 -4.48971e-011 1.129e-027  
     length 5.25035   
     axis 180 30 90   XYZ
    dof rx ry rz
    limits (-90.0 60.0)
           (-90.0 90.0)
           (-90.0 90.0)
  end
  begin
     id 26 
     name rradius
     direction -1 -4.48955e-011 6.34664e-027   
     length 3.58884   
     axis 180 30 90   XYZ
    dof rx
    limits (-10.0 170.0)
  end
  begin
     id 27 
     name rwrist
     direction -1 -4.48966e-011 9.54866e-027   
     length 1.79442   
     axis -7.69462e-015 -90 -90   XYZ
    dof ry
    limits (-180.0 0.0)
  end
  begin
     id 28
     name rhand
     direction -1 -4.48973e-011 1.90973e-026   
     length 0.779235   
     axis -1.21857e-014 -90 -90   XYZ
    dof rx rz
    limits (-90.0 90.0)
           (-45.0 45.0)
  end
  begin
     id 29
     name rfingers
     direction -1 -4.48984e-011 3.81946e-026   
     length 0.62824   
     axis -2.43714e-014 -90 -90   XYZ
    dof rx
    limits (0.0 90.0)
  end
  begin
     id 30
     name rthumb
     direction -0.707107 -6.34968e-011 0.707107   
     length 0.90203   
     axis -90 -45 -2.85299e-015   XYZ
    dof rx rz
    limits (-45.0 45.0)
           (-45.0 45.0)
  end
:hierarchy
  begin
    root lhipjoint rhipjoint lowerback
    lhipjoint lfemur
    lfemur ltibia
    ltibia lfoot
    lfoot ltoes
    rhipjoint rfemur
    rfemur rtibia
    rtibia rfoot
    rfoot rtoes
    lowerback upperback
    upperback thorax
    thorax lowerneck lclavicle rclavicle
    lowerneck upperneck
    upperneck head
    lclavicle lhumerus
    lhumerus lradius
    lradius lwrist
    lwrist lhand lthumb
    lhand lfingers
    rclavicle rhumerus
    rhumerus rradius
    rradius rwrist
    rwrist rhand rthumb
    rhand rfingers
  end

#!OML:ASF I:\Random Stuff\random\construction\7_22_03\Session 2\subj1.ASF
:FULLY-SPECIFIED
:DEGREES
993
root 4.64427 17.2858 -10.4847 40.6486 -9.53349 -11.358
lowerback 35.6982 -1.33157 -6.39837
upperback 13.6055 -4.54625 -10.0265
thorax -3.36112 -2.07239 -5.65996
lowerneck -11.9651 -4.08982 -11.998
upperneck 30.6157 -1.83013 -2.47277
head 12.3312 -2.41877 0.866788
rclavicle 1.55847e-013 1.05952e-013
rhumerus -29.6514 14.1641 -48.568
rradius 127.819
rwrist 11.7073
rhand -20.0015 18.5098
rfingers 7.12502
rthumb 6.33833 -11.3754
lclavicle 1.55847e-013 1.05952e-013
lhumerus 41.1305 -54.2373 54.0083
lradius 85.2241
lwrist 77.2816
lhand -6.18584 50.9032
lfingers 7.12502
lthumb -160.346 1339.93
rfemur -54.8209 -5.99347 44.8402
rtibia 16.4941
rfoot -2.66704 8.51013
rtoes -12.0087
lfemur -60.2867 5.66877 4.22898
ltibia 38.2402
lfoot -13.3167 4.9655
ltoes -33.1112
994
root 4.64435 17.2876 -10.4851 40.6557 -9.49487 -11.3998
lowerback 35.6559 -1.38765 -6.3814
upperback 13.6138 -4.60734 -10.0843
thorax -3.34992 -2.0996 -5.70999
lowerneck -12.0037 -4.02356 -11.8881
upperneck 30.6809 -1.73048 -2.56219
head 12.3571 -2.37841 0.827399
rclavicle 2.22639e-014 5.74488e-014
rhumerus -29.3762 14.3164 -48.2969
rradius 127.582
rwrist 11.4986
rhand -19.7261 19.0762
rfingers 7.12502
rthumb 6.60422 -10.8008
lclavicle 2.22639e-014 5.74488e-014
lhumerus 41.246 -53.9244 53.9228
lradius 85.0935
lwrist 76.6715
lhand -6.02556 51.7003
lfingers 7.12502
lthumb -160.192 1340.71
rfemur -54.8047 -5.96448 44.8668
rtibia 16.4811
rfoot -2.63901 8.50552
rtoes -12.0187
lfemur -60.2825 5.65278 4.31484
ltibia 38.2276
lfoot -13.3109 5.0012
ltoes -33.0815
995
root 4.64547 17.2873 -10.4847 40.5946 -9.42238 -11.4099
lowerback 35.6837 -1.45527 -6.35925
upperback 13.6254 -4.6848 -10.1188
thorax -3.35849 -2.13392 -5.73108
lowerneck -12.0785 -3.98104 -11.9067
upperneck 30.7902 -1.65844 -2.53685
head 12.4142 -2.35282 0.847804
rclavicle 1.90833e-014 -6.74874e-014
rhumerus -29.0131 14.4547 -47.983
rradius 127.293
rwrist 11.6454
rhand -19.7755 19.7549
rfingers 7.12502
rthumb 6.55658 -10.1236
lclavicle 1.90833e-014 -6.74874e-014
lhumerus 41.3416 -53.6452 53.9086
lradius 84.8466
lwrist 76.1313
lhand -6.15094 52.1678
lfingers 7.12502
lthumb -160.313 1341.19
rfemur -54.746 -5.96142 44.8308
rtibia 16.5015
rfoot -2.65908 8.38363
rtoes -12.2721
lfemur -60.2511 5.63741 4.32928
ltibia 38.2173
lfoot -13.3156 4.88697
ltoes -32.7478
996
root 4.64693 17.2877 -10.4827 40.4565 -9.32924 -11.3783
lowerback 35.7623 -1.51571 -6.33317
upperback 13.6393 -4.75525 -10.1338
thorax -3.37979 -2.1645 -5.73502
lowerneck -12.1381 -3.94163 -12.0779
upperneck 30.9444 -1.58463 -2.40297
head 12.4914 -2.33226 0.935037
rclavicle -8.26944e-014 6.75868e-015
rhumerus -28.7404 14.5851 -47.6632
rradius 126.996
rwrist 12.3342
rhand -20.0802 20.4501
rfingers 7.12502
rthumb 6.26238 -9.43731
lclavicle -8.26944e-014 6.75868e-015
lhumerus 41.2812 -53.3585 54.0609
lradius 84.5914
lwrist 75.4223
lhand -5.74722 52.5941
lfingers 7.12502
lthumb -159.925 1341.58
rfemur -54.657 -6.0528 44.7832
rtibia 16.5682
rfoot -2.70602 8.28089
rtoes -12.5015
lfemur -60.1668 5.57839 4.2844
ltibia 38.2106
lfoot -13.299 4.76268
ltoes -32.6141
997
root 4.64769 17.2888 -10.4793 40.3059 -9.2434 -11.3287
lowerback 35.8291 -1.59482 -6.28067
upperback 13.652 -4.84077 -10.1701
thorax -3.40484 -2.20088 -5.77005
lowerneck -12.2008 -3.92659 -12.1713
upperneck 31.0984 -1.53008 -2.37438
head 12.5687 -2.32371 0.966593
rclavicle -6.36111e-015 9.0447e-015
rhumerus -28.498 14.6534 -47.4092
rradius 126.722
rwrist 13.2966
rhand -20.2504 21.0423
rfingers 7.12502
rthumb 6.09808 -8.8499
lclavicle -6.36111e-015 9.0447e-015
lhumerus 41.03 -52.9214 54.3782
lradius 84.3599
lwrist 74.136
lhand -4.07273 53.3489
lfingers 7.12502
lthumb -158.316 1342.15
rfemur -54.5758 -6.16762 44.7279
rtibia 16.6749
rfoot -2.77764 8.20495
rtoes -12.6629
lfemur -60.0731 5.53263 4.19928
ltibia 38.2085
lfoot -13.2753 4.6352
ltoes -32.7419
998
root 4.64702 17.289 -10.4774 40.2097 -9.18476 -11.3115
lowerback 35.8508 -1.63948 -6.23075
upperback 13.6461 -4.88272 -10.1902
thorax -3.42962 -2.21799 -5.80175
lowerneck -12.2251 -3.9407 -12.1847
upperneck 31.1881 -1.52215 -2.41943
head 12.6119 -2.33143 0.951269
rclavicle 6.67916e-014 6.60214e-014
rhumerus -28.2753 14.6764 -47.1729
rradius 126.433
rwrist 14.1029
rhand -20.3932 21.6265
rfingers 7.12502
rthumb 5.96017 -8.26964
lclavicle 6.67916e-014 6.60214e-014
lhumerus 41.1444 -52.8537 54.2446
lradius 84.0767
lwrist 73.3367
lhand -3.84706 53.7005
lfingers 7.12502
lthumb -158.099 1342.48
rfemur -54.5416 -6.20212 44.68
rtibia 16.805
rfoot -2.84045 8.1147
rtoes -12.5555
lfemur -60.0103 5.51968 4.16831
ltibia 38.2133
lfoot -13.3257 4.51513
ltoes -32.482
